<?xml version="1.0" encoding="UTF-8" standalone="no"?>
<!DOCTYPE svg PUBLIC "-//W3C//DTD SVG 1.1//EN" "http://www.w3.org/Graphics/SVG/1.1/DTD/svg11.dtd">
<svg xmlns="http://www.w3.org/2000/svg" version="1.1" viewBox="0.00 0.00 1080.00 301.00">
<g stroke-width="2.00" fill="none" stroke-linecap="butt">
<path stroke="#1b487c" vector-effect="non-scaling-stroke" d="
  M 115.13 21.75
  Q 114.88 20.82 113.73 21.69
  Q 113.39 21.95 113.29 21.53
  Q 112.49 18.15 111.07 15.02
  C 108.77 9.93 107.56 6.51 105.91 2.18
  A 1.38 1.37 -8.2 0 0 104.74 1.31
  L 103.79 1.24
  Q 103.05 1.19 103.78 1.07
  Q 107.56 0.46 111.37 0.45
  Q 111.43 0.45 111.43 0.41
  Q 111.43 0.38 111.44 0.35
  A 0.11 0.10 -0.0 0 0 111.33 0.25
  L 94.01 0.18"
/>
<path stroke="#1f5793" vector-effect="non-scaling-stroke" d="
  M 145.39 261.48
  L 146.39 259.48
  Q 146.62 259.01 146.42 258.52
  Q 121.01 197.88 95.49 137.29
  Q 95.02 136.17 95.25 134.29
  Q 95.31 133.78 94.80 133.75
  Q 94.65 133.75 94.49 133.77
  A 0.61 0.60 -13.9 0 1 93.86 133.40
  L 47.80 23.69
  A 1.29 1.29 0.0 0 0 45.52 23.50
  Q 44.81 24.60 43.38 24.14"
/>
</g>
<path fill="#193f6f" d="
  M 94.06 0.00
  L 134.67 0.00
  Q 123.96 10.32 115.13 21.75
  Q 114.88 20.82 113.73 21.69
  Q 113.39 21.95 113.29 21.53
  Q 112.49 18.15 111.07 15.02
  C 108.77 9.93 107.56 6.51 105.91 2.18
  A 1.38 1.37 -8.2 0 0 104.74 1.31
  L 103.79 1.24
  Q 103.05 1.19 103.78 1.07
  Q 107.56 0.46 111.37 0.45
  Q 111.43 0.45 111.43 0.41
  Q 111.43 0.38 111.44 0.35
  A 0.11 0.10 -0.0 0 0 111.33 0.25
  L 94.01 0.18
  Q 94.04 0.09 94.06 0.00
  Z"
/>
<path fill="#1d5189" d="
  M 94.01 0.18
  L 111.33 0.25
  A 0.11 0.10 0.0 0 1 111.44 0.35
  Q 111.43 0.38 111.43 0.41
  Q 111.43 0.45 111.37 0.45
  Q 107.56 0.46 103.78 1.07
  Q 103.05 1.19 103.79 1.24
  L 104.74 1.31
  A 1.38 1.37 -8.2 0 1 105.91 2.18
  C 107.56 6.51 108.77 9.93 111.07 15.02
  Q 112.49 18.15 113.29 21.53
  Q 113.39 21.95 113.73 21.69
  Q 114.88 20.82 115.13 21.75
  C 88.37 58.19 84.99 97.10 117.36 131.89
  Q 141.28 157.59 165.78 182.74
  Q 172.80 189.95 175.86 194.92
  C 186.06 211.47 186.72 231.22 173.03 246.06
  C 165.76 253.94 156.35 260.25 145.39 261.48
  L 146.39 259.48
  Q 146.62 259.01 146.42 258.52
  Q 121.01 197.88 95.49 137.29
  Q 95.02 136.17 95.25 134.29
  Q 95.31 133.78 94.80 133.75
  Q 94.65 133.75 94.49 133.77
  A 0.61 0.60 -13.9 0 1 93.86 133.40
  L 47.80 23.69
  A 1.29 1.29 0.0 0 0 45.52 23.50
  Q 44.81 24.60 43.38 24.14
  Q 63.64 1.89 94.01 0.18
  Z"
/>
<path fill="#215c9c" d="
  M 145.39 261.48
  Q 132.11 262.33 122.04 253.97
  Q 95.13 231.63 68.44 209.43
  A 0.66 0.65 -54.7 0 1 68.30 208.58
  C 88.92 174.07 66.86 133.21 27.07 130.80
  C 24.08 130.62 20.58 131.29 17.33 131.52
  Q 16.79 131.56 16.79 131.02
  Q 16.65 113.75 16.82 96.53
  Q 17.25 55.31 43.38 24.14
  Q 44.81 24.60 45.52 23.50
  A 1.29 1.29 0.0 0 1 47.80 23.69
  L 93.86 133.40
  A 0.61 0.60 -13.9 0 0 94.49 133.77
  Q 94.65 133.75 94.80 133.75
  Q 95.31 133.78 95.25 134.29
  Q 95.02 136.17 95.49 137.29
  Q 121.01 197.88 146.42 258.52
  Q 146.62 259.01 146.39 259.48
  L 145.39 261.48
  Z"
/>
<path fill="#193f6f" d="
  M 217.07 44.69
  C 234.68 59.25 252.42 73.73 269.81 88.54
  Q 270.19 88.86 269.94 89.29
  C 254.56 115.23 262.19 146.07 288.32 160.90
  Q 302.83 169.13 320.69 166.25
  Q 321.24 166.16 321.24 166.73
  C 321.27 182.49 322.18 200.16 320.49 214.70
  C 316.24 251.20 294.00 287.94 256.08 296.18
  Q 249.17 297.68 236.19 297.90
  Q 220.06 298.17 204.08 297.93
  A 0.38 0.38 0.0 0 1 203.83 297.27
  C 232.65 271.05 256.14 229.80 237.74 190.51
  C 233.25 180.91 227.36 173.05 219.45 164.54
  Q 195.28 138.52 170.46 113.10
  C 155.56 97.84 148.50 74.47 161.67 56.18
  C 174.83 37.90 197.63 28.61 217.07 44.69
  Z"
/>
<circle fill="#2367ac" cx="312.43" cy="116.53" r="25.85"/>
<path fill="#172b53" d="
  M 869.28 145.50
  Q 869.19 179.63 869.27 213.75
  C 869.33 234.51 877.04 241.22 897.82 236.18
  A 0.66 0.65 -9.5 0 1 898.63 236.75
  L 899.59 247.45
  Q 899.63 247.95 899.15 248.08
  C 874.43 254.70 854.75 247.30 854.52 218.68
  Q 854.22 182.14 854.22 145.71
  A 0.71 0.71 0.0 0 0 853.51 145.00
  L 842.00 145.00
  A 0.50 0.50 0.0 0 1 841.50 144.50
  L 841.50 133.50
  A 0.50 0.50 0.0 0 1 842.00 133.00
  L 853.75 133.00
  A 0.50 0.50 0.0 0 0 854.25 132.50
  L 854.25 109.75
  Q 854.25 109.00 855.00 109.00
  L 868.50 109.00
  Q 869.25 109.00 869.25 109.75
  L 869.25 132.50
  A 0.50 0.50 0.0 0 0 869.75 133.00
  L 894.75 133.00
  Q 895.25 133.00 895.25 133.50
  L 895.25 144.25
  A 0.75 0.75 0.0 0 1 894.50 145.00
  L 869.77 145.00
  Q 869.28 145.00 869.28 145.50
  Z"
/>
<path fill="#172b53" d="
  M 402.62 146.84
  C 410.56 122.30 460.40 128.61 478.54 132.15
  A 0.57 0.56 8.8 0 1 479.00 132.77
  L 477.76 142.75
  Q 477.68 143.38 477.06 143.26
  C 464.74 140.86 424.71 135.21 417.90 149.30
  C 411.88 161.77 420.53 170.64 432.07 174.57
  C 445.64 179.18 467.54 183.98 476.06 196.53
  C 484.11 208.37 485.06 228.84 473.95 239.46
  C 457.59 255.10 419.80 250.34 399.23 246.54
  A 0.45 0.44 9.5 0 1 398.87 246.04
  L 400.08 236.22
  A 0.81 0.81 0.0 0 1 401.01 235.52
  C 417.11 238.07 438.96 241.51 454.26 236.05
  C 468.44 230.97 470.68 212.98 461.06 202.72
  C 454.33 195.55 440.02 191.69 429.56 188.45
  C 422.13 186.15 412.34 181.66 407.49 175.86
  C 400.79 167.83 399.47 156.58 402.62 146.84
  Z"
/>
<path fill="#172b53" d="
  M 744.22 185.94
  C 744.32 176.51 745.75 161.00 742.45 153.20
  C 734.42 134.25 695.49 142.31 679.49 145.33
  Q 678.41 145.54 678.19 144.47
  L 676.21 134.74
  A 0.84 0.84 0.0 0 1 676.86 133.75
  Q 685.12 131.99 693.38 130.92
  C 714.77 128.15 750.09 123.97 757.95 150.80
  Q 759.45 155.92 759.47 167.46
  Q 759.54 204.79 759.48 242.09
  A 0.83 0.83 0.0 0 1 758.94 242.87
  C 735.23 251.54 671.92 260.50 667.87 220.43
  C 663.28 175.01 715.61 176.66 743.37 186.53
  A 0.64 0.63 10.2 0 0 744.22 185.94
  Z
  M 688.19 200.44
  C 683.20 206.72 682.67 216.59 684.72 223.95
  C 690.70 245.40 728.33 240.40 743.17 236.42
  Q 744.25 236.13 744.25 235.01
  L 744.25 197.74
  A 1.66 1.64 -80.3 0 0 743.16 196.18
  C 728.59 190.84 699.34 186.42 688.19 200.44
  Z"
/>
<path fill="#172b53" d="
  M 574.25 140.42
  A 1.23 1.22 -36.4 0 0 575.67 140.63
  C 605.74 124.75 654.34 123.74 654.73 171.57
  Q 655.05 210.54 655.02 249.48
  A 0.52 0.52 0.0 0 1 654.50 250.00
  L 640.27 250.00
  Q 639.75 250.00 639.75 249.48
  Q 639.75 210.74 639.72 172.07
  Q 639.71 166.54 637.80 160.65
  C 629.60 135.34 599.93 141.94 583.00 152.80
  A 1.10 1.08 73.9 0 0 582.50 153.72
  L 582.50 249.50
  A 0.50 0.50 0.0 0 1 582.00 250.00
  L 567.80 250.00
  Q 567.27 250.00 567.26 249.47
  Q 567.22 205.21 567.26 161.00
  C 567.27 145.39 548.54 142.31 536.74 143.32
  Q 522.99 144.49 510.80 149.88
  Q 510.25 150.12 510.25 150.72
  L 510.25 249.50
  A 0.50 0.50 0.0 0 1 509.75 250.00
  L 496.00 250.00
  Q 495.25 250.00 495.25 249.25
  L 495.25 142.51
  A 1.19 1.17 -12.6 0 1 495.94 141.44
  Q 519.21 130.57 544.98 130.98
  C 554.38 131.13 567.27 133.51 574.25 140.42
  Z"
/>
<path fill="#172b53" d="
  M 785.25 148.50
  L 785.25 249.50
  A 0.50 0.50 0.0 0 1 784.75 250.00
  L 770.75 250.00
  Q 770.00 250.00 770.00 249.25
  L 770.00 140.06
  Q 770.00 139.59 770.42 139.39
  C 789.58 130.11 811.68 128.77 832.36 133.56
  A 0.59 0.58 -76.9 0 1 832.80 134.27
  L 830.28 144.47
  Q 830.15 144.98 829.63 144.88
  C 815.66 142.09 799.22 142.39 785.76 147.75
  Q 785.25 147.95 785.25 148.50
  Z"
/>
<path fill="#172b53" d="
  M 0.00 184.41
  L 0.00 177.96
  C 6.37 144.32 54.14 150.72 51.48 184.00
  C 49.90 203.63 26.54 213.96 10.33 202.11
  Q 1.94 195.97 0.00 184.41
  Z"
/>
<path fill="#2367ac" d="
  M 935.50 181.00
  L 949.62 181.00
  Q 950.25 181.00 950.25 181.63
  L 950.25 187.25
  Q 950.25 188.00 949.50 188.00
  L 935.51 188.00
  Q 935.01 188.00 935.01 188.50
  Q 934.98 209.40 935.01 230.24
  C 935.03 241.77 941.11 244.49 951.61 241.87
  Q 952.14 241.74 952.19 242.28
  L 952.75 248.25
  Q 952.80 248.77 952.30 248.90
  C 943.45 251.29 932.18 250.94 928.03 241.73
  Q 926.37 238.03 926.30 227.61
  Q 926.18 208.10 926.28 188.53
  Q 926.28 188.00 925.75 188.00
  L 919.25 188.00
  Q 918.50 188.00 918.50 187.25
  L 918.50 181.75
  Q 918.50 181.00 919.25 181.00
  L 925.75 181.00
  A 0.50 0.50 0.0 0 0 926.25 180.50
  L 926.25 167.75
  Q 926.25 167.00 927.00 167.00
  L 934.50 167.00
  Q 935.00 167.00 935.00 167.50
  L 935.00 180.50
  Q 935.00 181.00 935.50 181.00
  Z"
/>
<path fill="#2367ac" d="
  M 967.12 215.41
  C 966.83 229.54 971.37 240.38 986.84 241.45
  Q 999.58 242.33 1012.06 239.59
  Q 1012.65 239.46 1012.74 240.06
  L 1013.59 245.74
  Q 1013.68 246.34 1013.09 246.47
  C 990.14 251.75 959.76 252.59 957.85 220.43
  C 957.20 209.58 957.51 196.74 963.79 187.56
  C 972.24 175.22 996.70 174.60 1006.09 185.69
  C 1012.21 192.92 1013.72 204.85 1013.19 214.13
  Q 1013.14 215.00 1012.27 215.00
  L 967.54 215.00
  Q 967.13 215.00 967.12 215.41
  Z
  M 967.58 209.07
  L 1004.42 208.95
  A 0.26 0.26 0.0 0 0 1004.68 208.68
  L 1004.67 205.51
  A 20.37 16.80 89.8 0 0 987.80 185.20
  L 984.04 185.22
  A 20.37 16.80 89.8 0 0 967.31 205.65
  L 967.32 208.82
  A 0.26 0.26 0.0 0 0 967.58 209.07
  Z"
/>
<path fill="#2367ac" d="
  M 1029.69 186.94
  C 1038.45 175.51 1057.11 176.84 1069.37 180.30
  A 0.46 0.46 0.0 0 1 1069.69 180.82
  L 1068.69 186.74
  A 0.44 0.44 0.0 0 1 1068.15 187.09
  C 1059.09 184.66 1045.95 183.24 1038.62 190.37
  C 1031.58 197.21 1031.22 212.77 1032.51 221.68
  C 1035.61 243.27 1050.54 243.63 1068.30 240.76
  A 0.57 0.57 0.0 0 1 1068.96 241.26
  L 1069.66 246.77
  A 0.76 0.75 -9.5 0 1 1069.06 247.60
  C 1044.39 252.41 1025.45 248.40 1022.95 220.07
  C 1021.97 208.88 1022.63 196.14 1029.69 186.94
  Z"
/>
</svg>
