<svg width="66" height="65" viewBox="0 0 66 65" fill="none" xmlns="http://www.w3.org/2000/svg">
<g filter="url(#filter0_d_4_1170)">
<path d="M53.006 8.48926C58.3381 13.8213 61.6388 20.8037 61.6388 28.4209C61.6388 43.9092 48.6896 56.6045 33.0744 56.6045C28.3771 56.6045 23.8068 55.335 19.6174 53.1768L4.76384 56.9854L8.69938 42.3857C6.28728 38.1963 4.89079 33.3721 4.89079 28.2939C4.89079 12.8057 17.5861 0.110352 33.0744 0.110352C40.6916 0.110352 47.8009 3.15723 53.006 8.48926ZM33.0744 51.7803C46.0236 51.7803 56.8146 41.2432 56.8146 28.4209C56.8146 22.0732 54.1486 16.2334 49.7052 11.79C45.2619 7.34668 39.422 4.93457 33.2013 4.93457C20.2521 4.93457 9.71501 15.4717 9.71501 28.2939C9.71501 32.7373 10.9845 37.0537 13.2697 40.8623L13.9045 41.751L11.4924 50.3838L20.3791 47.9717L21.1408 48.4795C24.8224 50.6377 28.8849 51.7803 33.0744 51.7803ZM46.0236 34.2607C46.6584 34.6416 47.1662 34.7686 47.2931 35.1494C47.547 35.4033 47.547 36.7998 46.9123 38.4502C46.2775 40.1006 43.4845 41.624 42.215 41.751C39.9299 42.1318 38.1525 42.0049 33.7092 39.9736C26.5998 36.9268 22.0295 29.8174 21.6486 29.4365C21.2677 28.9287 18.8556 25.6279 18.8556 22.0732C18.8556 18.6455 20.633 16.9951 21.2677 16.2334C21.9025 15.4717 22.6642 15.3447 23.172 15.3447C23.5529 15.3447 24.0607 15.3447 24.4416 15.3447C24.9494 15.3447 25.4572 15.2178 26.092 16.6143C26.5998 18.0107 28.1232 21.4385 28.2502 21.8193C28.3771 22.2002 28.5041 22.5811 28.2502 23.0889C26.9806 25.7549 25.4572 25.6279 26.2189 26.8975C29.0119 31.5947 31.6779 33.2451 35.8674 35.2764C36.5021 35.6572 36.883 35.5303 37.3908 35.1494C37.7717 34.6416 39.1681 32.9912 39.549 32.3564C40.0568 31.5947 40.5646 31.7217 41.1994 31.9756C41.8342 32.2295 45.2619 33.8799 46.0236 34.2607Z" fill="white"/>
</g>
<defs>
<filter id="filter0_d_4_1170" x="0.76384" y="0.110352" width="64.875" height="64.875" filterUnits="userSpaceOnUse" color-interpolation-filters="sRGB">
<feFlood flood-opacity="0" result="BackgroundImageFix"/>
<feColorMatrix in="SourceAlpha" type="matrix" values="0 0 0 0 0 0 0 0 0 0 0 0 0 0 0 0 0 0 127 0" result="hardAlpha"/>
<feOffset dy="4"/>
<feGaussianBlur stdDeviation="2"/>
<feComposite in2="hardAlpha" operator="out"/>
<feColorMatrix type="matrix" values="0 0 0 0 0 0 0 0 0 0 0 0 0 0 0 0 0 0 0.25 0"/>
<feBlend mode="normal" in2="BackgroundImageFix" result="effect1_dropShadow_4_1170"/>
<feBlend mode="normal" in="SourceGraphic" in2="effect1_dropShadow_4_1170" result="shape"/>
</filter>
</defs>
</svg>
